<?xml version="1.0" encoding="UTF-8"?><svg id="a" xmlns="http://www.w3.org/2000/svg" viewBox="0 0 1080 1080"><defs><style>.b{fill:#1e1f4b;}</style></defs><path class="b" d="M212.08,872.5c-18.64,0-33.75-15.11-33.75-33.75,0-335.27,156.96-513.44,288.64-603.87,28.09-19.29,56.14-35.48,83.11-49.03H185.68c-18.64,0-33.75-15.11-33.75-33.75s15.11-33.75,33.75-33.75H760.08c17.85,0,32.61,13.9,33.69,31.72,1.07,17.82-11.93,33.39-29.65,35.52-1.26,.16-132.52,17.25-261.18,106.46-170.6,118.28-257.1,302.21-257.1,546.68,0,18.64-15.11,33.75-33.75,33.75Z"/><path class="b" d="M958.15,274.99h-178.26c-18.64,0-33.75-15.11-33.75-33.75V62.98c0-18.64,15.11-33.75,33.75-33.75h178.26c18.64,0,33.75,15.11,33.75,33.75V241.25c0,18.64-15.11,33.75-33.75,33.75Zm-144.52-67.49h110.77V96.73h-110.77v110.77Z"/><path class="b" d="M300.12,1050.76H121.85c-18.64,0-33.75-15.11-33.75-33.75v-178.26c0-18.64,15.11-33.75,33.75-33.75h178.26c18.64,0,33.75,15.11,33.75,33.75v178.26c0,18.64-15.11,33.75-33.75,33.75Zm-144.52-67.49h110.77v-110.77h-110.77v110.77Z"/></svg>