<svg width="18" height="20" viewBox="0 0 18 20" fill="none" xmlns="http://www.w3.org/2000/svg">
<path d="M9.36891 15.1484C9.92597 15.1484 10.4602 14.9544 10.8541 14.609C11.248 14.2637 11.4693 13.7953 11.4693 13.3069C11.4693 12.8185 11.248 12.3501 10.8541 12.0047C10.4602 11.6594 9.92597 11.4654 9.36891 11.4654C8.81186 11.4654 8.27762 11.6594 7.88372 12.0047C7.48983 12.3501 7.26854 12.8185 7.26854 13.3069C7.26854 13.7953 7.48983 14.2637 7.88372 14.609C8.27762 14.9544 8.81186 15.1484 9.36891 15.1484ZM15.67 6.86157C16.2271 6.86157 16.7613 7.05559 17.1552 7.40094C17.5491 7.74629 17.7704 8.21469 17.7704 8.70309V17.9107C17.7704 18.3991 17.5491 18.8675 17.1552 19.2128C16.7613 19.5582 16.2271 19.7522 15.67 19.7522H3.06778C2.51073 19.7522 1.97649 19.5582 1.58259 19.2128C1.1887 18.8675 0.967407 18.3991 0.967407 17.9107V8.70309C0.967407 8.21469 1.1887 7.74629 1.58259 7.40094C1.97649 7.05559 2.51073 6.86157 3.06778 6.86157H4.11797V5.02005C4.11797 3.79905 4.67119 2.62806 5.65594 1.76468C6.64068 0.901301 7.97628 0.41626 9.36891 0.41626C10.0585 0.41626 10.7413 0.53534 11.3784 0.766703C12.0154 0.998065 12.5943 1.33718 13.0819 1.76468C13.5695 2.19218 13.9563 2.6997 14.2202 3.25826C14.484 3.81682 14.6199 4.41547 14.6199 5.02005V6.86157H15.67ZM9.36891 2.25778C8.53333 2.25778 7.73197 2.5488 7.14113 3.06683C6.55028 3.58486 6.21835 4.28745 6.21835 5.02005V6.86157H12.5195V5.02005C12.5195 4.28745 12.1875 3.58486 11.5967 3.06683C11.0059 2.5488 10.2045 2.25778 9.36891 2.25778Z" fill="#6D788D"/>
</svg>
